<?xml version="1.0" encoding="utf-8"?>
<svg version="1.1" id="eke-panuku-logo" xmlns="http://www.w3.org/2000/svg" xmlns:xlink="http://www.w3.org/1999/xlink" x="0px"
	 y="0px" viewBox="0 0 178 52.8" style="enable-background:new 0 0 178 52.8;" xml:space="preserve">
<path id="eke-panuku-logo-paths" style="fill:#ffffff" d="M133.2,17.1c-0.2-0.7-0.2-1.5,0-2.2c0.3-0.7,0.8-1.3,1.4-1.6
	c0.7-0.4,1.4-0.5,2.1-0.4c0.7,0.1,1.4,0.5,1.9,1.1c0.5,0.6,0.7,1.3,0.7,2c0,0.3,0.2,0.5,0.3,0.7c0.3,0.2,0.6,0.4,0.9,0.5l0.4,0.2
	l10.4,4l0.1,0c0.2,0.1,0.5,0.1,0.7,0.1l0.1,0c-0.1-0.2-0.2-0.5-0.4-0.6l-8.1-7.8l-0.3-0.3c-0.2-0.3-0.5-0.5-0.8-0.6
	c-0.2-0.1-0.5-0.1-0.8,0c-0.7,0.3-1.4,0.4-2.2,0.2c-0.7-0.2-1.4-0.6-1.8-1.2c-0.4-0.6-0.7-1.3-0.6-2.1c0-0.7,0.4-1.5,0.9-2
	c0.5-0.5,1.2-0.9,1.9-1c0.7-0.1,1.5,0.1,2.1,0.5c0.6,0.4,1.1,1,1.3,1.7c0.2,0.7,0.2,1.5-0.1,2.2c-0.1,0.3-0.1,0.5,0,0.8
	c0.1,0.3,0.4,0.6,0.6,0.8l0.3,0.3l8,7.7l0.1,0.1c0.2,0.2,0.4,0.3,0.6,0.4h0.1c0-0.3,0-0.5-0.1-0.8l-4.4-10.4l-0.2-0.4
	c-0.1-0.3-0.3-0.6-0.5-0.9c-0.2-0.2-0.4-0.3-0.7-0.3c-0.7,0-1.5-0.2-2.1-0.6c-0.6-0.5-1-1.1-1.2-1.8c-0.2-0.7-0.1-1.5,0.3-2.2
	c0.3-0.7,0.9-1.2,1.6-1.5c0.7-0.3,1.5-0.3,2.2-0.1c0.7,0.2,1.3,0.7,1.8,1.3c0.4,0.6,0.6,1.4,0.5,2.1c-0.1,0.7-0.4,1.4-1,2
	c-0.2,0.2-0.3,0.5-0.3,0.8c0,0.3,0.1,0.7,0.3,1l0.2,0.4l4.4,10.2l0.1,0.1c0.1,0.2,0.2,0.4,0.4,0.6c0,0,0,0,0.1,0
	c0.1-0.2,0.2-0.5,0.2-0.7V7.7c0-0.3,0-0.7-0.1-1c-0.1-0.2-0.3-0.4-0.5-0.6c-0.7-0.3-1.3-0.8-1.7-1.4s-0.5-1.4-0.4-2.1
	c0.1-0.7,0.5-1.4,1.1-1.9c0.6-0.5,1.3-0.7,2-0.7c0.7,0,1.5,0.3,2,0.7c0.6,0.5,1,1.1,1.1,1.9s0,1.5-0.4,2.1c-0.4,0.7-1,1.2-1.7,1.4
	c-0.2,0.1-0.4,0.3-0.5,0.6c-0.1,0.3-0.2,0.7-0.1,1v11.7c0,0.2,0,0.5,0.2,0.7c0,0,0,0,0,0c0,0,0,0,0,0c0.2-0.2,0.3-0.4,0.4-0.6
	l0.1-0.1l4.3-10.2l0.2-0.4c0.2-0.3,0.2-0.6,0.3-1c0-0.3-0.1-0.5-0.3-0.8c-0.5-0.5-0.9-1.2-1-1.9c-0.1-0.7,0.1-1.5,0.5-2.1
	c0.4-0.6,1-1.1,1.7-1.3c0.7-0.2,1.5-0.2,2.2,0.1c0.7,0.3,1.2,0.8,1.6,1.5c0.3,0.7,0.4,1.4,0.3,2.2c-0.2,0.7-0.6,1.4-1.2,1.8
	c-0.6,0.5-1.3,0.7-2.1,0.6c-0.3,0-0.5,0.1-0.7,0.3c-0.2,0.2-0.4,0.5-0.5,0.9l-0.2,0.4l-4.4,10.4c-0.1,0.2-0.1,0.5-0.1,0.7
	c0,0,0,0,0,0c0,0,0,0,0.1,0c0.2-0.1,0.4-0.2,0.6-0.4l0.1-0.1l8-7.7l0.3-0.3c0.3-0.2,0.5-0.5,0.6-0.8c0.1-0.2,0.1-0.5,0-0.8
	c-0.3-0.7-0.3-1.5-0.1-2.2c0.2-0.7,0.7-1.3,1.3-1.7c0.6-0.4,1.4-0.6,2.1-0.5c0.7,0.1,1.4,0.4,1.9,1s0.8,1.2,0.9,2
	c0.1,0.7-0.2,1.5-0.6,2.1c-0.4,0.6-1.1,1-1.8,1.2c-0.7,0.2-1.5,0.1-2.2-0.2c-0.2-0.1-0.5-0.1-0.8,0c-0.3,0.1-0.6,0.3-0.8,0.6
	l-0.3,0.3l-8.1,7.8c-0.2,0.2-0.3,0.4-0.4,0.6c0,0,0,0,0,0c0,0,0,0,0,0c0.2,0,0.5,0,0.7-0.1l0.1,0l10.4-4l0.4-0.2
	c0.3-0.1,0.6-0.3,0.9-0.5c0.2-0.2,0.3-0.4,0.3-0.7c0-0.7,0.3-1.5,0.7-2c0.5-0.6,1.1-1,1.9-1.1c0.7-0.1,1.5,0,2.1,0.4
	c0.6,0.4,1.1,1,1.4,1.7c0.3,0.7,0.3,1.5,0,2.2c-0.2,0.7-0.7,1.3-1.4,1.7c-0.6,0.4-1.4,0.5-2.1,0.4c-0.7-0.1-1.4-0.5-1.9-1.1
	c-0.2-0.2-0.5-0.3-0.7-0.3c-0.3,0-0.7,0.1-1,0.2l-0.4,0.2l-10.5,4c-0.2,0.1-0.4,0.2-0.6,0.4c-0.1,0.1-0.1,0.3-0.1,0.4
	c0,0,0,0.1,0,0.1v0.1c0,0.8-0.3,1.5-0.8,2.1c-0.5,0.6-1.2,1-2,1.1v14.3l-0.9,0V26.5c-0.8-0.1-1.5-0.5-2-1.1
	c-0.5-0.6-0.8-1.3-0.8-2.1c0-0.2,0-0.3,0-0.3c0-0.1,0-0.3-0.1-0.4c-0.2-0.2-0.4-0.3-0.6-0.4l-10.5-4l-0.4-0.2
	c-0.3-0.1-0.6-0.2-1-0.2c-0.3,0-0.5,0.1-0.7,0.3c-0.5,0.6-1.2,0.9-1.9,1c-0.7,0.1-1.5,0-2.1-0.4C133.9,18.4,133.5,17.8,133.2,17.1z
	 M171.9,30.7c2.2-1.1,5.7-3.1,4.6-6.1c-6.9,1.2-13.5,4-19.8,7C161.4,33.4,167.3,32.6,171.9,30.7z M167.5,22.2
	c-4.6,1.2-8.9,4.3-11,8.7c6.2-3,12.9-5.8,19.7-6.8C174.2,21.5,170.3,21.7,167.5,22.2z M138.4,30.7c4.5,2,10.5,2.7,15.2,0.9
	c-6.3-3-12.9-5.8-19.8-7C132.7,27.5,136.2,29.6,138.4,30.7z M142.8,22.2c-2.8-0.6-6.7-0.8-8.7,1.8c6.9,1.1,13.5,3.8,19.7,6.8
	C151.7,26.6,147.4,23.4,142.8,22.2z M146.6,42.3c2.4,2,5.4,3.1,8.5,3.1c2.7,0,6.1-1,8.5-3.1c2.4,2,5.4,3.1,8.5,3.1
	c1.8,0,3.5-0.4,5.1-1.1v-2.5c-1.6,0.8-3.3,1.3-5.1,1.3c-2.5,0-5-0.9-7-2.5c-0.6-0.5-1.1-1.1-1.5-1.8c-0.4,0.7-0.9,1.3-1.5,1.8l0,0
	c-2,1.6-4.5,2.5-7,2.5c-2.5,0-5-0.9-7-2.5c-0.6-0.5-1.1-1.1-1.5-1.8c-0.4,0.7-0.9,1.3-1.5,1.8c-2,1.6-4.5,2.5-7,2.5
	c-1.8,0-3.5-0.5-5.1-1.3v2.5c1.6,0.7,3.3,1,5.1,1C140.8,45.4,144.2,44.4,146.6,42.3z M172.1,50.8c-3.1,0-6.1-1.2-8.5-3.2
	c-2.3,2.1-5.4,3.2-8.5,3.2c-3.1,0-6.2-1.2-8.5-3.2c-2.4,2.1-5.4,3.2-8.5,3.2c-1.8,0-3.5-0.4-5.1-1.1v2.4c2.2,0.9,4.7,1.2,7.1,0.9
	c2.4-0.4,4.7-1.3,6.5-2.9c2.4,1.9,5.4,3,8.5,3c3.1,0,6.1-1.1,8.5-3c2.4,1.9,5.4,3,8.5,3c1.8,0,3.5-0.4,5.1-1l0-2.4
	C175.6,50.4,173.9,50.8,172.1,50.8z M140.1,49.1c2.4-0.3,4.7-1.3,6.5-2.9c2.4,1.9,5.4,3,8.5,3c3.1,0,6.1-1.1,8.5-3
	c2.4,1.9,5.4,2.9,8.5,3c1.8,0,3.5-0.4,5.1-1l0-2.4c-1.6,0.7-3.4,1.1-5.1,1.1c-3.1,0-6.1-1.2-8.5-3.2c-2.3,2.1-5.4,3.2-8.5,3.2
	c-3.1,0-6.2-1.2-8.5-3.2c-2.4,2.1-5.4,3.2-8.5,3.2c-1.8,0-3.5-0.4-5.1-1.1v2.4C135.3,49.1,137.7,49.4,140.1,49.1z M46,36.9l6,16
	c0,0-3.4,0.5-3.9-0.9c-0.3-0.7-0.9-2.7-0.9-2.7h-6l-1.3,3.6h-3.6l6.1-16H46z M46.2,46.7l-2-5.9h0L42,46.7H46.2z M26.4,13.4h-8.6V9.5
	h7.7V6.8h-7.7V3.4h8.4V0.4H14.3v15.9h12.1V13.4z M14.2,26.6c0,6.5-4.4,9.2-11.5,8c-2.2-0.3-2.7,0-2.7,0v-16h6.9
	C11.1,18.7,14.2,21.3,14.2,26.6z M10.7,27c0-3.2-1.1-5.3-4.6-5.3H3.5v9.1c0,0.3,0,0.6-0.1,0.9C3.5,31.7,10.7,33.6,10.7,27z
	 M54.9,15.4c-0.1-0.1-0.1-0.2-0.1-0.4V0.4l0,0H62c4,0,5.5,2.5,5.5,5.1c0,2.6-1.5,5.1-5.5,5.1h-3.7v4.9c0,0.3,0.1,0.5,0.1,0.8
	c0,0-0.2,0-0.5,0c-0.7,0-2.2-0.1-2.9-0.7C55,15.6,54.9,15.5,54.9,15.4z M58.3,7.9H61c1.6,0,3.1-0.4,3.1-2.4S62.7,3.2,61,3.2h-2.7
	V7.9z M69.1,50.7c-2,0-2.6-2-2.6-3.7c0-1.7,0.7-3.8,2.7-3.8c1.3,0,2.2,0.7,2.4,2h3.1c-0.2-3-2.7-4.4-5.4-4.4c-3.8,0-5.9,2.7-5.9,6.3
	c0,3.5,2.4,5.9,5.8,5.9c3,0,5.2-1.7,5.6-4.8h-3.1C71.4,49.8,70.6,50.7,69.1,50.7z M71,8.3h-3.2c0.2-3,2.8-3.9,5.4-3.9
	c2.3,0,5.1,0.5,5.1,3.3v6c0,1.1,0.1,2.1,0.4,2.6c0,0-3.5,0.3-3.5-1.1c-1,1-2.5,1.4-3.9,1.4c-2.2,0-3.9-1.1-3.9-3.5
	c0-2.6,2-3.3,3.9-3.5c2-0.3,3.8-0.2,3.8-1.5c0-1.4-0.9-1.6-2.1-1.6C71.9,6.6,71.1,7.1,71,8.3L71,8.3z M75.1,11.9L75.1,11.9l0-1.2
	c-0.5,0.5-1.7,0.5-2.6,0.7c-1,0.2-1.9,0.5-1.9,1.7c0,1.2,0.9,1.5,2,1.5C75,14.6,75.1,12.6,75.1,11.9z M102,50.3
	c0,1.1,0.1,2.1,0.4,2.6c0,0-3.5,0.3-3.5-1.1c-1,1.1-2.5,1.4-3.9,1.4c-2.2,0-3.9-1.1-3.9-3.5c0-2.6,2-3.3,3.9-3.5
	c2-0.3,3.8-0.2,3.8-1.5c0-1.4-0.9-1.6-2.1-1.6c-1.2,0-2,0.5-2.1,1.8h-3.2c0.2-3,2.8-3.9,5.4-3.9c2.3,0,5.1,0.5,5.1,3.3V50.3z
	 M98.8,48.3L98.8,48.3l0-1.2c-0.5,0.5-1.7,0.5-2.6,0.7c-1,0.2-1.9,0.5-1.9,1.7c0,1.2,0.9,1.5,2,1.5C98.7,51,98.8,49,98.8,48.3z
	 M38.3,10.6c0-3.5,2.4-6.1,5.9-6.1c3.9,0,5.9,3.3,5.6,6.9v0h-8.4c0.1,2,1.1,2.9,2.8,2.9c1.3,0,2.3-0.8,2.5-1.5h2.8
	c-0.9,2.7-2.8,3.9-5.4,3.9C40.5,16.7,38.3,14.2,38.3,10.6z M41.5,9.3h5.2c-0.3-1.6-1-2.5-2.5-2.5c-0.3,0-0.7,0-1,0.1
	c-0.3,0.1-0.6,0.3-0.9,0.5C42,7.8,41.8,8,41.7,8.3C41.5,8.7,41.5,9,41.5,9.3z M26.3,29.6L26.3,29.6l-8.4,0c0.1,2,1.1,2.9,2.8,2.9
	c1.3,0,2.3-0.8,2.5-1.5H26c-0.9,2.7-2.8,3.9-5.4,3.9c-3.7,0-5.9-2.5-5.9-6.1c0-3.5,2.4-6.1,5.9-6.1C24.6,22.7,26.5,26,26.3,29.6z
	 M23.1,27.6c-0.3-1.6-1-2.5-2.5-2.5c-0.3,0-0.7,0-1,0.1c-0.3,0.1-0.6,0.3-0.9,0.5c-0.2,0.2-0.4,0.5-0.6,0.8c-0.1,0.3-0.2,0.6-0.2,1
	H23.1z M47.9,29.6L47.9,29.6l-8.4,0c0.1,2,1.1,2.9,2.8,2.9c1.3,0,2.3-0.8,2.5-1.5h2.8c-0.9,2.7-2.8,3.9-5.4,3.9
	c-3.7,0-5.9-2.5-5.9-6.1c0-3.5,2.4-6.1,5.9-6.1C46.3,22.7,48.2,26,47.9,29.6z M44.8,27.6c-0.3-1.6-1-2.5-2.5-2.5c-0.3,0-0.7,0-1,0.1
	c-0.3,0.1-0.6,0.3-0.9,0.5c-0.2,0.2-0.4,0.5-0.6,0.8c-0.1,0.3-0.2,0.6-0.2,1H44.8z M109.2,29.6L109.2,29.6
	C109.2,29.6,109.2,29.6,109.2,29.6L109.2,29.6z M103.6,22.7c3.9,0,5.8,3.3,5.6,6.9h-8.3c0.1,2,1.1,2.9,2.8,2.9
	c1.3,0,2.3-0.8,2.5-1.5h2.8c-0.9,2.7-2.8,3.9-5.4,3.9c-3.7,0-5.9-2.5-5.9-6.1C97.7,25.3,100.1,22.7,103.6,22.7z M100.9,27.6h5.2
	c-0.3-1.6-1-2.5-2.5-2.5c-0.3,0-0.7,0-1,0.1c-0.3,0.1-0.6,0.3-0.9,0.5c-0.2,0.2-0.4,0.5-0.6,0.8C101,26.9,100.9,27.2,100.9,27.6z
	 M82.9,10.3c0-2.4,0.7-3.3,2.5-3.3c1.5,0,2,0.9,2,2.9v5.4c0,0.8,1,1,1.9,1.1c0.6,0,1.1,0,1.7,0c-0.3-0.5-0.4-1.3-0.4-2.3V9.2
	c0-2.9-0.9-4.8-4.2-4.8c-0.7,0-1.4,0.2-2,0.5c-0.6,0.3-1.1,0.8-1.5,1.4h-0.1V4.8h-3v11.6h3.2V10.3z M119.7,34.7c0.6,0,1.1,0,1.7,0
	c-0.3-0.5-0.4-1.3-0.4-2.3v-4.8c0-2.9-0.9-4.8-4.2-4.8c-0.7,0-1.4,0.2-2,0.5c-0.6,0.3-1.1,0.8-1.5,1.4h-0.1v-1.6h-3v11.6l3.2,0v-6.1
	c0-2.4,0.7-3.3,2.5-3.3c1.5,0,2,0.9,2,2.8v5.4C117.8,34.3,118.8,34.6,119.7,34.7z M114,45.7c0-2.9-0.9-4.8-4.2-4.8
	c-0.7,0-1.4,0.2-2,0.5c-0.6,0.3-1.1,0.8-1.5,1.4h-0.1v-1.6h-3v11.6h3.2v-6.1c0-2.4,0.7-3.3,2.5-3.3c1.5,0,2,0.9,2,2.8v5.4
	c0,0.8,1,1,1.9,1.1c0.6,0,1.1,0,1.7,0c-0.3-0.5-0.4-1.3-0.4-2.3V45.7z M53,28.8c0-3.7,2.4-6.1,6-6.1s6,2.4,6,6.1
	c0,3.7-2.4,6.1-6,6.1C55.4,34.9,53,32.5,53,28.8z M56.2,28.8c0,1.8,0.6,3.7,2.8,3.7c2.1,0,2.8-1.9,2.8-3.7c0-1.8-0.6-3.7-2.8-3.7
	S56.2,27,56.2,28.8z M126.8,52.8C126.8,52.8,126.8,52.8,126.8,52.8L126.8,52.8C126.8,52.8,126.8,52.8,126.8,52.8z M126.5,51.8
	c0,0.4,0.1,0.7,0.3,1.1c-0.6,0-1.1,0-1.7,0c-0.2,0-0.3,0-0.5-0.1l-0.1,0h-0.1l-0.1,0l-0.1,0l-0.2,0l-0.1,0c-0.5-0.2-0.7-0.4-0.8-0.8
	v-0.2c-0.4,0.5-0.9,0.9-1.5,1.2s-1.2,0.4-1.9,0.3c-3.5,0-5.2-3-5.2-6.2c0-3.1,1.7-6,5.1-6c0.7,0,1.3,0.1,1.9,0.4
	c0.6,0.3,1.1,0.8,1.5,1.3v-1.1v-5.3c0.2,0.4,1.2,0.5,2,0.6c0.5,0,0.9,0,1.2,0v12.8v0.6c0,0.1,0,0.2,0,0.3
	C126.4,51,126.4,51.4,126.5,51.8z M123.3,47c0-1.9-0.7-3.7-2.7-3.7c-2.1,0-2.8,1.8-2.8,3.7c0,1.8,0.8,3.7,2.8,3.7
	C122.7,50.7,123.3,48.9,123.3,47z M126.8,52.8L126.8,52.8C126.8,52.8,126.8,52.8,126.8,52.8C126.8,52.8,126.8,52.8,126.8,52.8z
	 M127.1,25.4c0.2-1.4,1.7-2.1,0.2-2.1h-2.1c0,0,0,0,0-3.5H122v12.3c0,2.3,1.7,2.7,3.6,2.7c1.7,0,1.8-2.6,1.8-2.6
	c-0.3,0.1-0.6,0.1-1,0.1c-1.1,0-1.3-0.3-1.3-1.3l0-5.7H127.1z M30.9,12.4l1.2-1.2l2.3,3.8c0,0,0.8,1.4,3.3,1.4h1.4l-4.9-7.4l4.4-4.2
	h-3.8l-4,4.2V0.5h-3.2v15.9h3.2V12.4z M107.1,12.4l1.2-1.2l2.3,3.8c0,0,0.8,1.4,3.3,1.4h1.4l-4.9-7.4l4.4-4.2h-3.8l-4,4.2V0.5h-3.2
	v15.9h3.2V12.4z M86.4,41.3h-3.8l-4,4.2v-8.5h-3.2l0,15.9h3.2v-4l1.2-1.2l2.3,3.8c0,0,0.8,1.4,3.3,1.4h1.4L82,45.6L86.4,41.3z
	 M69.2,35.4v1c0,1.1,0.1,1.8,0.4,2.3c-0.6,0-1.1,0-1.7,0C67,38.6,66,38.3,66,37.5L66,23h3v1.5c0.4-0.6,0.9-1.1,1.5-1.4
	c0.6-0.3,1.3-0.5,2-0.4c3.6,0,5.2,2.9,5.2,6.2c0,3.1-1.7,6-5.1,6c-0.7,0-1.3-0.1-2-0.4c-0.6-0.3-1.1-0.8-1.5-1.3L69.2,35.4z
	 M71.8,32.5c2.1,0,2.8-1.8,2.8-3.7c0-1.9-0.8-3.8-2.8-3.8c-2,0-2.8,1.9-2.8,3.8S69.8,32.5,71.8,32.5z M95.8,16.7
	c0.7,0,1.4-0.2,2-0.5c0.6-0.3,1.1-0.8,1.5-1.4h0.1v0.5c0,0.6,0.6,0.9,1.4,1c0.7,0.1,1.4,0.1,2.1,0.1c-0.3-0.5-0.4-1.6-0.4-2.6V4.7
	h-3.2v6.1c0,2.4-0.7,3.3-2.5,3.3c-1.5,0-2-0.9-2-2.9V4.7h-3.2v7.1C91.6,14.8,92.4,16.7,95.8,16.7z M119.9,16.7c0.7,0,1.4-0.2,2-0.5
	c0.6-0.3,1.1-0.8,1.5-1.4h0.1v0.5c0,0.6,0.6,0.9,1.4,1c0.7,0.1,1.4,0.1,2.1,0.1c-0.3-0.5-0.4-1.6-0.4-2.6V4.7h-3.2v6.1
	c0,2.4-0.7,3.3-2.5,3.3c-1.5,0-2-0.9-2-2.9V4.7h-3.2v7.1C115.7,14.8,116.5,16.7,119.9,16.7z M62.6,41.2h-3.2v6.1
	c0,2.4-0.7,3.3-2.5,3.3c-1.5,0-2-0.9-2-2.9v-6.6h-3.2v7.2c0,2.9,0.9,4.8,4.2,4.8c0.7,0,1.4-0.2,2-0.5c0.6-0.3,1.1-0.8,1.5-1.4h0v0.5
	c0,0.6,0.6,0.9,1.4,1c0.7,0.1,1.4,0.1,2.1,0.1c-0.3-0.5-0.4-1.6-0.4-2.6V41.2z M36,23c-1.6,0-2.3,0.7-2.6,1.5
	c-0.2,0.8-0.5,1.7-0.5,1.7l-1.5,4.7l-2-6.5c-0.2-0.8-1-1.5-2.6-1.5h-1.2c0,0,3.4,9.8,3.6,10.5c0.4,1.2,3.9,1.2,3.9,1.2L37,23L36,23z
	 M82.2,27.9c0-2.2,1.5-2.7,2.2-2.7c2,0,1.9,1.5,1.9,2.9v6.5h3.2v-6.5c0-1.4,0.3-2.8,2-2.9c1.5,0,2,0.9,2,2.8v5.4c0,0.8,1,1,1.9,1.1
	c0.6,0,1.1,0,1.7,0c-0.3-0.5-0.4-1.3-0.4-2.4l0-1.6v-3.2c0-2.8-0.8-4.7-4.2-4.8c-0.7,0-1.4,0.2-2,0.5c-0.6,0.3-1.1,0.8-1.5,1.4
	c-0.6-1.4-1.9-1.9-3.4-1.9c-0.7,0-1.4,0.2-2,0.5S82.4,24,82,24.6V23h-3v11.6h3.2V27.9z M90.3,36.9h-3.2v14.9c0,0.2,0.1,0.3,0.2,0.4
	c0.1,0.1,0.2,0.2,0.4,0.3l0.2,0.1l0.2,0.1l0.2,0.1l0.2,0c0.2,0,0.3,0.1,0.5,0.1l0,0c0.6,0,1.1,0,1.7,0c-0.3-0.5-0.4-1.4-0.4-2.6
	V36.9z M49,18.7v14.9c0,0.2,0.1,0.3,0.2,0.4c0.1,0.1,0.2,0.2,0.4,0.3l0.2,0.1l0.2,0.1l0.2,0.1l0.2,0c0.2,0,0.3,0.1,0.5,0.1l0,0
	c0.6,0,1.1,0,1.7,0c-0.3-0.5-0.4-1.4-0.4-2.6V18.7H49z"/>
</svg>
